<svg height='300px' width='300px'  fill="#000000" xmlns="http://www.w3.org/2000/svg" xmlns:xlink="http://www.w3.org/1999/xlink" version="1.1" x="0px" y="0px" viewBox="0 0 1024 1024" style="enable-background:new 0 0 1024 1024;" xml:space="preserve"><g><g><path d="M920.3,512c0,20-1.3,39.9-3.9,59.7c0.5-3.5,1-7.1,1.4-10.6c-5.3,39.3-15.7,77.7-31,114.2    c1.3-3.2,2.7-6.4,4-9.6c-15.1,35.6-34.7,69.2-58.3,99.9c2.1-2.7,4.2-5.4,6.3-8.1c-23.5,30.4-50.9,57.7-81.2,81.2    c2.7-2.1,5.4-4.2,8.1-6.3c-30.7,23.6-64.2,43.2-99.9,58.3c3.2-1.3,6.4-2.7,9.6-4c-36.5,15.3-74.9,25.7-114.2,31    c3.5-0.5,7.1-1,10.6-1.4c-39.6,5.2-79.8,5.2-119.4,0c3.5,0.5,7.1,1,10.6,1.4c-39.3-5.3-77.7-15.7-114.2-31c3.2,1.3,6.4,2.7,9.6,4    c-35.6-15.1-69.2-34.7-99.9-58.3c2.7,2.1,5.4,4.2,8.1,6.3c-30.4-23.5-57.7-50.9-81.2-81.2c2.1,2.7,4.2,5.4,6.3,8.1    c-23.6-30.7-43.2-64.2-58.3-99.9c1.3,3.2,2.7,6.4,4,9.6c-15.3-36.5-25.7-74.9-31-114.2c0.5,3.5,1,7.1,1.4,10.6    c-5.2-39.7-5.2-79.9,0-119.6c-0.5,3.5-1,7.1-1.4,10.6c0.8-5.7,1.6-11.3,2.6-17c-9.3,9.3-18.6,18.6-27.9,27.9    c92.3-15.7,179.6-64.7,241.7-134.8c18.2-20.6,34.8-42.8,48.9-66.4c-20.9,2.7-41.9,5.4-62.8,8.1c60.2,58.4,138,99.7,220.8,113.9    c23.2,4,46.8,6.6,70.4,6.9c23.7,0.4,47.2-1.8,70.7-5.2c42-6,82.2-19.1,120.5-37.3c41.8-19.9,80.3-47.6,113.4-80    c-20.9-2.7-41.9-5.4-62.8-8.1c19.4,27.1,35.8,56.2,48.8,86.8c-1.3-3.2-2.7-6.4-4-9.6c15.4,36.5,25.9,74.9,31.2,114.2    c-0.5-3.5-1-7.1-1.4-10.6C918.9,471.7,920.2,491.8,920.3,512c0,20.9,18.4,41,40,40c21.6-1,40-17.6,40-40    c-0.2-80.2-20-159.5-57.6-230.3c-9.5-17.8-20.1-34.9-31.8-51.3c-7.6-10.5-16.1-17.3-29.2-19.1c-12.6-1.7-24.4,2-33.6,11    c-11.1,10.9-22.8,21.1-35,30.6c2.7-2.1,5.4-4.2,8.1-6.3c-26.4,20.3-55.3,37.2-86,50.2c3.2-1.3,6.4-2.7,9.6-4    c-31,13-63.5,21.8-96.8,26.4c3.5-0.5,7.1-1,10.6-1.4c-34.4,4.6-69.3,4.7-103.7,0.2c3.5,0.5,7.1,1,10.6,1.4    c-33.9-4.6-67.1-13.6-98.6-26.8c3.2,1.3,6.4,2.7,9.6,4c-30.8-13.1-59.7-30-86.2-50.5c2.7,2.1,5.4,4.2,8.1,6.3    c-11.5-8.9-22.4-18.4-32.8-28.6c-18.6-18-49.4-14.2-62.8,8.1c-7.9,13.2-16.6,26-26,38.2c2.1-2.7,4.2-5.4,6.3-8.1    c-20.1,25.9-43.4,49.2-69.2,69.3c2.7-2.1,5.4-4.2,8.1-6.3c-26.5,20.5-55.6,37.5-86.4,50.5c3.2-1.3,6.4-2.7,9.6-4    c-27.3,11.4-55.8,19.7-85,24.7c-12.4,2.1-25.8,15.6-27.9,27.9c-10.8,63-10.3,126.3,2.6,188.9c10.2,49.8,29.1,98.4,54.5,142.5    c24.8,43.1,56.7,82.9,93.5,116.4c37.2,33.8,79.4,62.5,125.2,83.2c24.7,11.1,50,20.8,76.1,27.9c26.7,7.2,54.1,11.8,81.6,14.6    c52.4,5.4,105.9,1.5,157.3-10.2c49.5-11.3,97.7-31,141.1-57.2c42.8-25.8,82.2-58.5,115-96.2c33.1-38.1,60.9-80.6,80.6-127    c10.6-24.8,19.8-49.9,26.3-76.1c6.7-26.9,10.9-54.5,13.1-82.1c1-12.3,1.5-24.7,1.5-37c0-20.9-18.4-41-40-40    C938.6,473,920.3,489.6,920.3,512z"></path></g></g><g><path d="M876.2,250.7c-69.6,68.5-165,110.8-270.4,110.8c-104.5,0-199.4-41.6-268.8-109.2   C280.3,347.4,183.7,416,70.3,435.1C91.3,314,160.8,209.5,258.1,142.5C298,115,342.6,93.9,390.5,80.4   c38.6-10.9,79.4-16.7,121.5-16.7C662,63.7,794.9,137.5,876.2,250.7z"></path><g><path d="M847.9,222.4c-11.1,10.9-22.8,21.1-35,30.6c2.7-2.1,5.4-4.2,8.1-6.3c-26.4,20.3-55.3,37.2-86,50.2    c3.2-1.3,6.4-2.7,9.6-4c-31,13-63.5,21.8-96.8,26.4c3.5-0.5,7.1-1,10.6-1.4c-34.4,4.6-69.3,4.7-103.7,0.2c3.5,0.5,7.1,1,10.6,1.4    c-33.9-4.6-67.1-13.6-98.6-26.8c3.2,1.3,6.4,2.7,9.6,4c-30.8-13.1-59.7-30-86.2-50.5c2.7,2.1,5.4,4.2,8.1,6.3    c-11.5-8.9-22.4-18.4-32.8-28.6c-18.6-18-49.4-14.2-62.8,8.1c-7.9,13.2-16.6,26-26,38.2c2.1-2.7,4.2-5.4,6.3-8.1    c-20.1,25.9-43.4,49.2-69.2,69.3c2.7-2.1,5.4-4.2,8.1-6.3c-26.5,20.5-55.6,37.5-86.4,50.5c3.2-1.3,6.4-2.7,9.6-4    c-27.3,11.4-55.8,19.7-85,24.7c16.4,16.4,32.8,32.8,49.2,49.2c5.8-33.2,15.3-65.6,28.3-96.6c-1.3,3.2-2.7,6.4-4,9.6    c15.2-36,35-69.9,58.9-100.8c-2.1,2.7-4.2,5.4-6.3,8.1c23.5-30.2,50.8-57.4,81.1-80.9c-2.7,2.1-5.4,4.2-8.1,6.3    c30.6-23.5,64.2-43.1,99.7-58.2c-3.2,1.3-6.4,2.7-9.6,4c36.3-15.2,74.5-25.6,113.5-30.9c-3.5,0.5-7.1,1-10.6,1.4    c39.8-5.3,80.1-5.3,119.9-0.1c-3.5-0.5-7.1-1-10.6-1.4c39.3,5.3,77.8,15.7,114.4,31.1c-3.2-1.3-6.4-2.7-9.6-4    c35.7,15.1,69.3,34.8,100,58.5c-2.7-2.1-5.4-4.2-8.1-6.3c30,23.3,57.1,50.3,80.4,80.3c-2.1-2.7-4.2-5.4-6.3-8.1    c3.3,4.3,6.6,8.7,9.8,13.1c6.3,8.7,13.2,15.4,23.9,18.4c9.6,2.6,22.3,1.4,30.8-4c8.5-5.5,16.1-13.7,18.4-23.9    c2.3-9.9,2.2-22.2-4-30.8c-41.5-57.6-93.9-106.6-155.7-142c-63.3-36.4-134-57.5-206.7-63.3c-84.6-6.8-169.8,10.2-246.4,46.1    c-65.1,30.5-124.2,77.1-169,133.3C87.2,262,53.3,328.1,36.7,399.8c-1.9,8.2-3.5,16.4-5,24.6c-2.5,14.4-0.5,28.1,10.3,38.9    c5,5,10.9,8.4,17.7,10.3c7.1,1.9,14.2,1.9,21.3,0c92.3-15.7,179.6-64.7,241.7-134.8c18.2-20.6,34.8-42.8,48.9-66.4    c-20.9,2.7-41.9,5.4-62.8,8.1c60.2,58.4,138,99.7,220.8,113.9c23.2,4,46.8,6.6,70.4,6.9c23.7,0.4,47.2-1.8,70.7-5.2    c42-6,82.2-19.1,120.5-37.3c41.8-19.9,80.3-47.6,113.4-80c15-14.7,15.8-42.1,0-56.6C888.4,207.6,863.9,206.7,847.9,222.4z"></path></g></g><g><circle cx="321.5" cy="562" r="57"></circle><g><path d="M358.5,562c0,1.4-0.1,2.8-0.2,4.2c0,0.5-0.1,0.9-0.1,1.4c-0.3,2.2-0.2,1.8,0.2-1.2    c0.5,0.3-1.7,7.1-1.9,7.9c-0.2,0.6-0.8,3.5-1.4,3.8c0.3-0.8,0.6-1.6,1-2.3c-0.4,0.8-0.8,1.6-1.2,2.4c-1.2,2.3-2.7,4.5-4.1,6.7    c-2.4,3.8,3-3.2-0.1,0.1c-0.9,1-1.7,2-2.6,2.9c-0.9,0.9-1.9,1.8-2.8,2.7c-0.3,0.3-0.7,0.6-1,0.9c-1.7,1.4-1.3,1.1,1-0.7    c0,0.8-4.9,3.3-5.5,3.6c-1.1,0.7-2.3,1.2-3.5,1.9c-2,0.9-1.6,0.8,1.1-0.4c-0.8,0.3-1.7,0.6-2.5,0.9c-2.6,0.9-5.2,1.4-7.8,2.1    c-3.9,1,1.3-0.1,1.3-0.1c-0.5,0.5-3.4,0.3-4.1,0.4c-2.8,0.1-5.6,0-8.4-0.2c-4.7-0.3,4.4,1.1-0.1-0.1c-1.7-0.4-3.5-0.8-5.2-1.3    c-1.1-0.3-2.1-0.7-3.2-1c-3.8-1.3,0.1,0.5,0.5,0.3c-0.6,0.5-6.2-3.3-6.9-3.8c-0.4-0.3-3.2-1.8-3.2-2.2c0.7,0.5,1.3,1,2,1.5    c-0.7-0.5-1.3-1.1-2-1.7c-2-1.8-3.7-3.7-5.5-5.6c-3.1-3.3,2.4,3.7-0.1-0.1c-0.7-1.1-1.5-2.2-2.2-3.3c-0.7-1.1-1.3-2.3-1.9-3.4    c-0.2-0.4-0.4-0.8-0.6-1.2c-0.9-2-0.8-1.6,0.4,1.1c-1.1-0.5-2-5.8-2.3-7c-0.3-1.1-0.5-2.2-0.8-3.3c-0.4-2.2-0.4-1.8,0.1,1.3    c-0.1-0.9-0.2-1.8-0.3-2.7c-0.2-2.8-0.2-5.6,0-8.4c0-0.5,0.1-0.9,0.1-1.4c0.3-2.2,0.2-1.8-0.2,1.2c-0.2-0.1,0.6-3,0.7-3.3    c0.6-2.4,1.4-4.7,2.1-7.1c1.4-4.3-2.1,3.9,0.1-0.1c0.8-1.5,1.6-3.1,2.5-4.6c0.7-1.1,1.4-2.2,2.2-3.3c2.4-3.8-3,3.2,0.1-0.1    c1.5-1.6,2.9-3.2,4.5-4.7c0.3-0.3,2.6-2.7,3-2.6c-0.7,0.5-1.3,1-2,1.5c0.7-0.5,1.4-1,2.1-1.5c0.8-0.6,7.3-5.1,8-4.5    c0,0-4.1,1.5-1.1,0.5c1.3-0.4,2.5-0.9,3.8-1.3c1.3-0.4,2.6-0.7,3.9-1c0.4-0.1,0.9-0.2,1.3-0.3c2.2-0.4,1.8-0.4-1.3,0.1    c1.3-1.1,6.7-0.4,8.3-0.4c1.4,0,2.8,0.2,4.2,0.3c4.1,0.3-4.1-1,0.1,0.1c3.1,0.8,6,1.6,9,2.6c4.3,1.4-3.9-2.1,0.1,0.1    c1.5,0.8,3.1,1.6,4.6,2.5c0.7,0.5,1.5,0.9,2.2,1.4c0.7,0.5,1.4,1,2.1,1.5c-2.3-1.8-2.6-2-1-0.7c2.2,2.1,4.4,4.2,6.5,6.5    c3.1,3.3-2.4-3.7,0.1,0.1c0.9,1.5,1.9,2.9,2.8,4.4c0.4,0.8,0.9,1.5,1.3,2.3c0.4,0.8,0.8,1.6,1.2,2.4c-1.1-2.8-1.3-3.1-0.5-1.1    c1,3,1.8,6,2.6,9c1.2,4.5-0.2-4.6,0.1,0.1C358.3,558.3,358.5,560.1,358.5,562c0.1,10.5,9.1,20.5,20,20c10.7-0.5,20.1-8.8,20-20    c-0.4-33-21-61.1-51.6-72.6c-28.8-10.8-64.2-1.1-83.7,22.6c-20.8,25.3-24.9,61.2-7.7,89.7c17.2,28.3,50.1,41.9,82.3,35.6    c35.3-6.9,60.3-40,60.7-75.2c0.1-10.5-9.3-20.5-20-20C367.5,542.5,358.6,550.8,358.5,562z"></path></g></g><g><circle cx="702.5" cy="562" r="57"></circle><g><path d="M739.5,562c0,1.4-0.1,2.8-0.2,4.2c0,0.5-0.1,0.9-0.1,1.4c-0.3,2.2-0.2,1.8,0.2-1.2    c0.5,0.3-1.7,7.1-1.9,7.9c-0.2,0.6-0.8,3.5-1.4,3.8c0.3-0.8,0.6-1.6,1-2.3c-0.4,0.8-0.8,1.6-1.2,2.4c-1.2,2.3-2.7,4.5-4.1,6.7    c-2.4,3.8,3-3.2-0.1,0.1c-0.9,1-1.7,2-2.6,2.9c-0.9,0.9-1.9,1.8-2.8,2.7c-0.3,0.3-0.7,0.6-1,0.9c-1.7,1.4-1.3,1.1,1-0.7    c0,0.8-4.9,3.3-5.5,3.6c-1.1,0.7-2.3,1.2-3.5,1.9c-2,0.9-1.6,0.8,1.1-0.4c-0.8,0.3-1.7,0.6-2.5,0.9c-2.6,0.9-5.2,1.4-7.8,2.1    c-3.9,1,1.3-0.1,1.3-0.1c-0.5,0.5-3.4,0.3-4.1,0.4c-2.8,0.1-5.6,0-8.4-0.2c-4.7-0.3,4.4,1.1-0.1-0.1c-1.7-0.4-3.5-0.8-5.2-1.3    c-1.1-0.3-2.1-0.7-3.2-1c-3.8-1.3,0.1,0.5,0.5,0.3c-0.6,0.5-6.2-3.3-6.9-3.8c-0.4-0.3-3.2-1.8-3.2-2.2c0.7,0.5,1.3,1,2,1.5    c-0.7-0.5-1.3-1.1-2-1.7c-2-1.8-3.7-3.7-5.5-5.6c-3.1-3.3,2.4,3.7-0.1-0.1c-0.7-1.1-1.5-2.2-2.2-3.3c-0.7-1.1-1.3-2.3-1.9-3.4    c-0.2-0.4-0.4-0.8-0.6-1.2c-0.9-2-0.8-1.6,0.4,1.1c-1.1-0.5-2-5.8-2.3-7c-0.3-1.1-0.5-2.2-0.8-3.3c-0.4-2.2-0.4-1.8,0.1,1.3    c-0.1-0.9-0.2-1.8-0.3-2.7c-0.2-2.8-0.2-5.6,0-8.4c0-0.5,0.1-0.9,0.1-1.4c0.3-2.2,0.2-1.8-0.2,1.2c-0.2-0.1,0.6-3,0.7-3.3    c0.6-2.4,1.4-4.7,2.1-7.1c1.4-4.3-2.1,3.9,0.1-0.1c0.8-1.5,1.6-3.1,2.5-4.6c0.7-1.1,1.4-2.2,2.2-3.3c2.4-3.8-3,3.2,0.1-0.1    c1.5-1.6,2.9-3.2,4.5-4.7c0.3-0.3,2.6-2.7,3-2.6c-0.7,0.5-1.3,1-2,1.5c0.7-0.5,1.4-1,2.1-1.5c0.8-0.6,7.3-5.1,8-4.5    c0,0-4.1,1.5-1.1,0.5c1.3-0.4,2.5-0.9,3.8-1.3c1.3-0.4,2.6-0.7,3.9-1c0.4-0.1,0.9-0.2,1.3-0.3c2.2-0.4,1.8-0.4-1.3,0.1    c1.3-1.1,6.7-0.4,8.3-0.4c1.4,0,2.8,0.2,4.2,0.3c4.1,0.3-4.1-1,0.1,0.1c3.1,0.8,6,1.6,9,2.6c4.3,1.4-3.9-2.1,0.1,0.1    c1.5,0.8,3.1,1.6,4.6,2.5c0.7,0.5,1.5,0.9,2.2,1.4c0.7,0.5,1.4,1,2.1,1.5c-2.3-1.8-2.6-2-1-0.7c2.2,2.1,4.4,4.2,6.5,6.5    c3.1,3.3-2.4-3.7,0.1,0.1c0.9,1.5,1.9,2.9,2.8,4.4c0.4,0.8,0.9,1.5,1.3,2.3c0.4,0.8,0.8,1.6,1.2,2.4c-1.1-2.8-1.3-3.1-0.5-1.1    c1,3,1.8,6,2.6,9c1.2,4.5-0.2-4.6,0.1,0.1C739.3,558.3,739.5,560.1,739.5,562c0.1,10.5,9.1,20.5,20,20c10.7-0.5,20.1-8.8,20-20    c-0.4-33-21-61.1-51.6-72.6c-28.8-10.8-64.2-1.1-83.7,22.6c-20.8,25.3-24.9,61.2-7.7,89.7c17.2,28.3,50.1,41.9,82.3,35.6    c35.3-6.9,60.3-40,60.7-75.2c0.1-10.5-9.3-20.5-20-20C748.5,542.5,739.6,550.8,739.5,562z"></path></g></g></svg>